<svg width="15" height="9" viewBox="0 0 15 9" fill="none" xmlns="http://www.w3.org/2000/svg">
<path d="M0.292787 0.79357C0.480314 0.606099 0.734622 0.500783 0.999786 0.500783C1.26495 0.500783 1.51926 0.606099 1.70679 0.79357L6.99979 6.08657L12.2928 0.79357C12.385 0.698059 12.4954 0.621877 12.6174 0.569468C12.7394 0.517059 12.8706 0.489473 13.0034 0.488319C13.1362 0.487165 13.2678 0.512467 13.3907 0.562748C13.5136 0.613029 13.6253 0.687282 13.7192 0.781175C13.8131 0.875067 13.8873 0.986719 13.9376 1.10962C13.9879 1.23251 14.0132 1.36419 14.012 1.49697C14.0109 1.62975 13.9833 1.76097 13.9309 1.88297C13.8785 2.00498 13.8023 2.11532 13.7068 2.20757L7.70679 8.20757C7.51926 8.39504 7.26495 8.50036 6.99979 8.50036C6.73462 8.50036 6.48031 8.39504 6.29279 8.20757L0.292787 2.20757C0.105316 2.02004 0 1.76573 0 1.50057C0 1.23541 0.105316 0.981097 0.292787 0.79357Z" fill="#333333"/>
</svg>
